# xmcd
#
# Track frame offsets:
#   150
#   10811
#   23508
#   35976
#   48139
#   64590
#   74349
#   86033
#   96305
#   107363
#   119094
#   133896
#   149903
#   163488
#   178397
#
# Disc length: 2578 seconds
#
# Revision: 0
# Processed by: cddbd v1.5.1PL0 Copyright (c) Steve Scherf et al.
# Submitted via: uFREEDB ActiveX Control 1.5
#
DISCID=e40a100f
DTITLE=Super Bandas - Bailão e arrasta pé
DYEAR=1900
DGENRE=Country
TTITLE0=Moça feia dá azar
TTITLE1=Peão de rodeio
TTITLE2=Fogo na palha
TTITLE3=A gaguinha
TTITLE4=Dançando e tomando mé
TTITLE5=Mas eu gosto
TTITLE6=Garota nota mil
TTITLE7=Meu xodó
TTITLE8=De cabeça virada
TTITLE9=Difícil de segurar
TTITLE10=Só as morenas
TTITLE11=Cowboy do asfalto
TTITLE12=Que baile bom
TTITLE13=Abre a sanfona
TTITLE14=Vim te buscar
EXTD=
EXTT0=
EXTT1=
EXTT2=
EXTT3=
EXTT4=
EXTT5=
EXTT6=
EXTT7=
EXTT8=
EXTT9=
EXTT10=
EXTT11=
EXTT12=
EXTT13=
EXTT14=
PLAYORDER=
